<svg xmlns="http://www.w3.org/2000/svg" xmlns:xlink="http://www.w3.org/1999/xlink" width="300" zoomAndPan="magnify" viewBox="0 0 224.87999 60" height="80" preserveAspectRatio="xMidYMid meet" version="1.0"><defs><g/><clipPath id="f34252226c"><path d="M 5.996094 3.695312 L 31.484375 3.695312 L 31.484375 32 L 5.996094 32 Z M 5.996094 3.695312 " clip-rule="nonzero"/></clipPath></defs><g fill="#d9d9d9" fill-opacity="1"><g transform="translate(32.038412, 31.999011)"><g><path d="M 11.828125 0.140625 C 9.960938 0.140625 8.296875 -0.269531 6.828125 -1.09375 C 5.359375 -1.925781 4.210938 -3.078125 3.390625 -4.546875 C 2.578125 -6.023438 2.171875 -7.695312 2.171875 -9.5625 C 2.171875 -11.445312 2.578125 -13.125 3.390625 -14.59375 C 4.210938 -16.070312 5.359375 -17.222656 6.828125 -18.046875 C 8.296875 -18.878906 9.960938 -19.296875 11.828125 -19.296875 C 13.671875 -19.296875 15.320312 -18.878906 16.78125 -18.046875 C 18.25 -17.222656 19.394531 -16.070312 20.21875 -14.59375 C 21.050781 -13.125 21.46875 -11.445312 21.46875 -9.5625 C 21.46875 -7.695312 21.054688 -6.023438 20.234375 -4.546875 C 19.421875 -3.078125 18.285156 -1.925781 16.828125 -1.09375 C 15.367188 -0.269531 13.703125 0.140625 11.828125 0.140625 Z M 11.828125 -3.015625 C 13.023438 -3.015625 14.09375 -3.289062 15.03125 -3.84375 C 15.976562 -4.40625 16.710938 -5.179688 17.234375 -6.171875 C 17.765625 -7.171875 18.03125 -8.300781 18.03125 -9.5625 C 18.03125 -10.820312 17.765625 -11.953125 17.234375 -12.953125 C 16.710938 -13.960938 15.976562 -14.742188 15.03125 -15.296875 C 14.09375 -15.859375 13.023438 -16.140625 11.828125 -16.140625 C 10.640625 -16.140625 9.570312 -15.859375 8.625 -15.296875 C 7.6875 -14.742188 6.945312 -13.960938 6.40625 -12.953125 C 5.875 -11.953125 5.609375 -10.820312 5.609375 -9.5625 C 5.609375 -8.300781 5.875 -7.171875 6.40625 -6.171875 C 6.945312 -5.179688 7.6875 -4.40625 8.625 -3.84375 C 9.570312 -3.289062 10.640625 -3.015625 11.828125 -3.015625 Z M 11.828125 -3.015625 "/></g></g></g><g fill="#d9d9d9" fill-opacity="1"><g transform="translate(55.677208, 31.999011)"><g><path d="M 19.671875 -27.34375 C 20.210938 -27.34375 20.644531 -27.175781 20.96875 -26.84375 C 21.300781 -26.519531 21.46875 -26.09375 21.46875 -25.5625 L 21.46875 -9.59375 C 21.46875 -7.769531 21.039062 -6.117188 20.1875 -4.640625 C 19.332031 -3.160156 18.175781 -1.992188 16.71875 -1.140625 C 15.257812 -0.285156 13.628906 0.140625 11.828125 0.140625 C 10.035156 0.140625 8.394531 -0.285156 6.90625 -1.140625 C 5.425781 -1.992188 4.265625 -3.160156 3.421875 -4.640625 C 2.585938 -6.117188 2.171875 -7.769531 2.171875 -9.59375 C 2.171875 -11.414062 2.5625 -13.066406 3.34375 -14.546875 C 4.125 -16.023438 5.195312 -17.1875 6.5625 -18.03125 C 7.925781 -18.875 9.453125 -19.296875 11.140625 -19.296875 C 12.492188 -19.296875 13.753906 -19.015625 14.921875 -18.453125 C 16.085938 -17.890625 17.078125 -17.109375 17.890625 -16.109375 L 17.890625 -25.5625 C 17.890625 -26.09375 18.054688 -26.519531 18.390625 -26.84375 C 18.734375 -27.175781 19.160156 -27.34375 19.671875 -27.34375 Z M 11.828125 -3.015625 C 13.003906 -3.015625 14.0625 -3.300781 15 -3.875 C 15.945312 -4.445312 16.6875 -5.234375 17.21875 -6.234375 C 17.757812 -7.234375 18.03125 -8.351562 18.03125 -9.59375 C 18.03125 -10.832031 17.757812 -11.945312 17.21875 -12.9375 C 16.6875 -13.925781 15.945312 -14.707031 15 -15.28125 C 14.0625 -15.851562 13.003906 -16.140625 11.828125 -16.140625 C 10.660156 -16.140625 9.601562 -15.851562 8.65625 -15.28125 C 7.71875 -14.707031 6.972656 -13.925781 6.421875 -12.9375 C 5.878906 -11.945312 5.609375 -10.832031 5.609375 -9.59375 C 5.609375 -8.351562 5.878906 -7.234375 6.421875 -6.234375 C 6.972656 -5.234375 7.71875 -4.445312 8.65625 -3.875 C 9.601562 -3.300781 10.660156 -3.015625 11.828125 -3.015625 Z M 11.828125 -3.015625 "/></g></g></g><g fill="#d9d9d9" fill-opacity="1"><g transform="translate(80.296573, 31.999011)"><g><path d="M 20.34375 -9.875 C 20.34375 -9.425781 20.191406 -9.054688 19.890625 -8.765625 C 19.585938 -8.472656 19.203125 -8.328125 18.734375 -8.328125 L 5.421875 -8.328125 C 5.679688 -6.691406 6.421875 -5.375 7.640625 -4.375 C 8.867188 -3.375 10.375 -2.875 12.15625 -2.875 C 12.851562 -2.875 13.582031 -3 14.34375 -3.25 C 15.101562 -3.507812 15.726562 -3.828125 16.21875 -4.203125 C 16.539062 -4.460938 16.925781 -4.59375 17.375 -4.59375 C 17.8125 -4.59375 18.160156 -4.472656 18.421875 -4.234375 C 18.835938 -3.890625 19.046875 -3.492188 19.046875 -3.046875 C 19.046875 -2.628906 18.859375 -2.28125 18.484375 -2 C 17.691406 -1.363281 16.707031 -0.847656 15.53125 -0.453125 C 14.351562 -0.0546875 13.226562 0.140625 12.15625 0.140625 C 10.238281 0.140625 8.519531 -0.269531 7 -1.09375 C 5.488281 -1.925781 4.304688 -3.078125 3.453125 -4.546875 C 2.597656 -6.023438 2.171875 -7.695312 2.171875 -9.5625 C 2.171875 -11.425781 2.570312 -13.097656 3.375 -14.578125 C 4.1875 -16.066406 5.304688 -17.222656 6.734375 -18.046875 C 8.171875 -18.878906 9.800781 -19.296875 11.625 -19.296875 C 13.425781 -19.296875 14.976562 -18.894531 16.28125 -18.09375 C 17.59375 -17.300781 18.597656 -16.191406 19.296875 -14.765625 C 19.992188 -13.347656 20.34375 -11.71875 20.34375 -9.875 Z M 11.625 -16.28125 C 9.914062 -16.28125 8.53125 -15.8125 7.46875 -14.875 C 6.40625 -13.945312 5.738281 -12.703125 5.46875 -11.140625 L 17.125 -11.140625 C 16.914062 -12.703125 16.332031 -13.945312 15.375 -14.875 C 14.414062 -15.8125 13.164062 -16.28125 11.625 -16.28125 Z M 11.625 -16.28125 "/></g></g></g><g fill="#d9d9d9" fill-opacity="1"><g transform="translate(102.044258, 31.999011)"><g><path d="M 20.9375 -27.34375 C 21.425781 -27.34375 21.828125 -27.1875 22.140625 -26.875 C 22.460938 -26.5625 22.625 -26.160156 22.625 -25.671875 C 22.625 -25.179688 22.460938 -24.773438 22.140625 -24.453125 C 21.828125 -24.140625 21.425781 -23.984375 20.9375 -23.984375 L 13.40625 -23.984375 L 13.40625 -1.828125 C 13.40625 -1.304688 13.226562 -0.867188 12.875 -0.515625 C 12.53125 -0.171875 12.101562 0 11.59375 0 C 11.070312 0 10.632812 -0.171875 10.28125 -0.515625 C 9.9375 -0.867188 9.765625 -1.304688 9.765625 -1.828125 L 9.765625 -23.984375 L 2.203125 -23.984375 C 1.710938 -23.984375 1.3125 -24.140625 1 -24.453125 C 0.6875 -24.773438 0.53125 -25.179688 0.53125 -25.671875 C 0.53125 -26.160156 0.6875 -26.5625 1 -26.875 C 1.3125 -27.1875 1.710938 -27.34375 2.203125 -27.34375 Z M 20.9375 -27.34375 "/></g></g></g><g fill="#d9d9d9" fill-opacity="1"><g transform="translate(125.192765, 31.999011)"><g><path d="M 18.9375 -19.1875 C 19.476562 -19.1875 19.910156 -19.019531 20.234375 -18.6875 C 20.566406 -18.363281 20.734375 -17.9375 20.734375 -17.40625 L 20.734375 -1.78125 C 20.734375 -1.269531 20.566406 -0.84375 20.234375 -0.5 C 19.910156 -0.164062 19.476562 0 18.9375 0 C 18.425781 0 18 -0.164062 17.65625 -0.5 C 17.320312 -0.84375 17.15625 -1.269531 17.15625 -1.78125 L 17.15625 -2.171875 C 16.40625 -1.421875 15.515625 -0.84375 14.484375 -0.4375 C 13.460938 -0.03125 12.367188 0.171875 11.203125 0.171875 C 9.585938 0.171875 8.140625 -0.175781 6.859375 -0.875 C 5.578125 -1.570312 4.570312 -2.59375 3.84375 -3.9375 C 3.125 -5.28125 2.765625 -6.894531 2.765625 -8.78125 L 2.765625 -17.40625 C 2.765625 -17.914062 2.929688 -18.335938 3.265625 -18.671875 C 3.609375 -19.015625 4.035156 -19.1875 4.546875 -19.1875 C 5.066406 -19.1875 5.492188 -19.015625 5.828125 -18.671875 C 6.171875 -18.335938 6.34375 -17.914062 6.34375 -17.40625 L 6.34375 -8.78125 C 6.34375 -6.894531 6.847656 -5.46875 7.859375 -4.5 C 8.878906 -3.53125 10.226562 -3.046875 11.90625 -3.046875 C 12.882812 -3.046875 13.773438 -3.242188 14.578125 -3.640625 C 15.390625 -4.035156 16.019531 -4.570312 16.46875 -5.25 C 16.925781 -5.925781 17.15625 -6.6875 17.15625 -7.53125 L 17.15625 -17.40625 C 17.15625 -17.9375 17.320312 -18.363281 17.65625 -18.6875 C 18 -19.019531 18.425781 -19.1875 18.9375 -19.1875 Z M 18.9375 -19.1875 "/></g></g></g><g fill="#d9d9d9" fill-opacity="1"><g transform="translate(149.076702, 31.999011)"><g><path d="M 12.78125 -19.296875 C 14.582031 -19.296875 16.222656 -18.867188 17.703125 -18.015625 C 19.179688 -17.160156 20.335938 -15.992188 21.171875 -14.515625 C 22.015625 -13.035156 22.4375 -11.382812 22.4375 -9.5625 C 22.4375 -7.738281 22.046875 -6.082031 21.265625 -4.59375 C 20.484375 -3.113281 19.410156 -1.953125 18.046875 -1.109375 C 16.679688 -0.273438 15.160156 0.140625 13.484375 0.140625 C 12.128906 0.140625 10.867188 -0.140625 9.703125 -0.703125 C 8.535156 -1.265625 7.539062 -2.046875 6.71875 -3.046875 L 6.71875 6.40625 C 6.71875 6.945312 6.554688 7.378906 6.234375 7.703125 C 5.910156 8.023438 5.476562 8.1875 4.9375 8.1875 C 4.425781 8.1875 4 8.023438 3.65625 7.703125 C 3.320312 7.378906 3.15625 6.945312 3.15625 6.40625 L 3.15625 -9.5625 C 3.15625 -11.382812 3.578125 -13.035156 4.421875 -14.515625 C 5.273438 -15.992188 6.429688 -17.160156 7.890625 -18.015625 C 9.347656 -18.867188 10.976562 -19.296875 12.78125 -19.296875 Z M 12.78125 -3.015625 C 13.945312 -3.015625 15.003906 -3.300781 15.953125 -3.875 C 16.898438 -4.445312 17.644531 -5.226562 18.1875 -6.21875 C 18.738281 -7.207031 19.015625 -8.320312 19.015625 -9.5625 C 19.015625 -10.800781 18.738281 -11.921875 18.1875 -12.921875 C 17.644531 -13.921875 16.898438 -14.707031 15.953125 -15.28125 C 15.003906 -15.851562 13.945312 -16.140625 12.78125 -16.140625 C 11.613281 -16.140625 10.554688 -15.851562 9.609375 -15.28125 C 8.660156 -14.707031 7.914062 -13.921875 7.375 -12.921875 C 6.84375 -11.921875 6.578125 -10.800781 6.578125 -9.5625 C 6.578125 -8.320312 6.84375 -7.207031 7.375 -6.21875 C 7.914062 -5.226562 8.660156 -4.445312 9.609375 -3.875 C 10.554688 -3.300781 11.613281 -3.015625 12.78125 -3.015625 Z M 12.78125 -3.015625 "/></g></g></g><g fill="#d9d9d9" fill-opacity="1"><g transform="translate(173.696066, 31.999011)"><g><path d="M 7.703125 0 C 6.703125 0 5.796875 -0.269531 4.984375 -0.8125 C 4.179688 -1.363281 3.554688 -2.132812 3.109375 -3.125 C 2.671875 -4.125 2.453125 -5.242188 2.453125 -6.484375 L 2.453125 -25.59375 C 2.453125 -26.101562 2.613281 -26.519531 2.9375 -26.84375 C 3.269531 -27.175781 3.691406 -27.34375 4.203125 -27.34375 C 4.710938 -27.34375 5.128906 -27.175781 5.453125 -26.84375 C 5.785156 -26.519531 5.953125 -26.101562 5.953125 -25.59375 L 5.953125 -6.484375 C 5.953125 -5.617188 6.113281 -4.90625 6.4375 -4.34375 C 6.769531 -3.78125 7.191406 -3.5 7.703125 -3.5 L 8.578125 -3.5 C 9.046875 -3.5 9.425781 -3.332031 9.71875 -3 C 10.007812 -2.675781 10.15625 -2.257812 10.15625 -1.75 C 10.15625 -1.238281 9.929688 -0.816406 9.484375 -0.484375 C 9.046875 -0.160156 8.476562 0 7.78125 0 Z M 7.703125 0 "/></g></g></g><g fill="#d9d9d9" fill-opacity="1"><g transform="translate(184.2022, 31.999011)"><g><path d="M 20.34375 -9.875 C 20.34375 -9.425781 20.191406 -9.054688 19.890625 -8.765625 C 19.585938 -8.472656 19.203125 -8.328125 18.734375 -8.328125 L 5.421875 -8.328125 C 5.679688 -6.691406 6.421875 -5.375 7.640625 -4.375 C 8.867188 -3.375 10.375 -2.875 12.15625 -2.875 C 12.851562 -2.875 13.582031 -3 14.34375 -3.25 C 15.101562 -3.507812 15.726562 -3.828125 16.21875 -4.203125 C 16.539062 -4.460938 16.925781 -4.59375 17.375 -4.59375 C 17.8125 -4.59375 18.160156 -4.472656 18.421875 -4.234375 C 18.835938 -3.890625 19.046875 -3.492188 19.046875 -3.046875 C 19.046875 -2.628906 18.859375 -2.28125 18.484375 -2 C 17.691406 -1.363281 16.707031 -0.847656 15.53125 -0.453125 C 14.351562 -0.0546875 13.226562 0.140625 12.15625 0.140625 C 10.238281 0.140625 8.519531 -0.269531 7 -1.09375 C 5.488281 -1.925781 4.304688 -3.078125 3.453125 -4.546875 C 2.597656 -6.023438 2.171875 -7.695312 2.171875 -9.5625 C 2.171875 -11.425781 2.570312 -13.097656 3.375 -14.578125 C 4.1875 -16.066406 5.304688 -17.222656 6.734375 -18.046875 C 8.171875 -18.878906 9.800781 -19.296875 11.625 -19.296875 C 13.425781 -19.296875 14.976562 -18.894531 16.28125 -18.09375 C 17.59375 -17.300781 18.597656 -16.191406 19.296875 -14.765625 C 19.992188 -13.347656 20.34375 -11.71875 20.34375 -9.875 Z M 11.625 -16.28125 C 9.914062 -16.28125 8.53125 -15.8125 7.46875 -14.875 C 6.40625 -13.945312 5.738281 -12.703125 5.46875 -11.140625 L 17.125 -11.140625 C 16.914062 -12.703125 16.332031 -13.945312 15.375 -14.875 C 14.414062 -15.8125 13.164062 -16.28125 11.625 -16.28125 Z M 11.625 -16.28125 "/></g></g></g><g clip-path="url(#f34252226c)"><path fill="#84e4e9" d="M 20.101562 31.933594 C 12.324219 31.933594 5.996094 25.605469 5.996094 17.828125 C 5.996094 10.050781 12.324219 3.726562 20.101562 3.726562 C 24.019531 3.726562 27.796875 5.375 30.457031 8.253906 L 31.179688 9.035156 L 25.71875 14.085938 L 24.996094 13.304688 C 23.71875 11.925781 21.980469 11.164062 20.101562 11.164062 C 16.425781 11.164062 13.433594 14.152344 13.433594 17.828125 C 13.433594 19.816406 14.316406 21.6875 15.855469 22.960938 L 14.5 24.597656 C 12.472656 22.917969 11.308594 20.449219 11.308594 17.828125 C 11.308594 12.980469 15.253906 9.039062 20.101562 9.039062 C 22.222656 9.039062 24.207031 9.773438 25.789062 11.125 L 28.140625 8.949219 C 25.949219 6.96875 23.074219 5.851562 20.101562 5.851562 C 13.496094 5.851562 8.121094 11.222656 8.121094 17.828125 C 8.121094 24.433594 13.496094 29.804688 20.101562 29.804688 C 22.621094 29.804688 25.035156 29.03125 27.078125 27.5625 C 27.625 27.171875 28.144531 26.726562 28.621094 26.246094 L 30.132812 27.738281 C 29.574219 28.304688 28.960938 28.828125 28.316406 29.289062 C 25.910156 31.019531 23.070312 31.933594 20.101562 31.933594 " fill-opacity="1" fill-rule="nonzero"/></g><g fill="#84e4e9" fill-opacity="1"><g transform="translate(119.883993, 54.804749)"><g><path d="M 5.296875 0.09375 C 4.515625 0.09375 3.765625 -0.0351562 3.046875 -0.296875 C 2.335938 -0.566406 1.757812 -0.941406 1.3125 -1.421875 C 1.1875 -1.566406 1.125 -1.707031 1.125 -1.84375 C 1.125 -2.0625 1.226562 -2.25 1.4375 -2.40625 C 1.582031 -2.519531 1.738281 -2.578125 1.90625 -2.578125 C 2.113281 -2.578125 2.296875 -2.488281 2.453125 -2.3125 C 2.753906 -1.96875 3.148438 -1.695312 3.640625 -1.5 C 4.140625 -1.3125 4.691406 -1.21875 5.296875 -1.21875 C 6.179688 -1.21875 6.84375 -1.367188 7.28125 -1.671875 C 7.71875 -1.972656 7.941406 -2.367188 7.953125 -2.859375 C 7.953125 -3.316406 7.734375 -3.695312 7.296875 -4 C 6.859375 -4.300781 6.160156 -4.523438 5.203125 -4.671875 C 3.972656 -4.878906 3.050781 -5.226562 2.4375 -5.71875 C 1.832031 -6.21875 1.53125 -6.820312 1.53125 -7.53125 C 1.53125 -8.445312 1.882812 -9.15625 2.59375 -9.65625 C 3.300781 -10.15625 4.191406 -10.40625 5.265625 -10.40625 C 6.085938 -10.40625 6.804688 -10.265625 7.421875 -9.984375 C 8.046875 -9.703125 8.546875 -9.3125 8.921875 -8.8125 C 9.023438 -8.644531 9.078125 -8.5 9.078125 -8.375 C 9.078125 -8.15625 8.972656 -7.984375 8.765625 -7.859375 C 8.679688 -7.796875 8.5625 -7.765625 8.40625 -7.765625 C 8.144531 -7.765625 7.925781 -7.859375 7.75 -8.046875 C 7.132812 -8.753906 6.289062 -9.109375 5.21875 -9.109375 C 4.53125 -9.109375 3.976562 -8.96875 3.5625 -8.6875 C 3.144531 -8.40625 2.9375 -8.050781 2.9375 -7.625 C 2.9375 -7.164062 3.128906 -6.800781 3.515625 -6.53125 C 3.910156 -6.257812 4.601562 -6.046875 5.59375 -5.890625 C 6.945312 -5.660156 7.910156 -5.289062 8.484375 -4.78125 C 9.066406 -4.269531 9.359375 -3.640625 9.359375 -2.890625 C 9.359375 -2.304688 9.179688 -1.785156 8.828125 -1.328125 C 8.484375 -0.878906 8.003906 -0.53125 7.390625 -0.28125 C 6.773438 -0.03125 6.078125 0.09375 5.296875 0.09375 Z M 5.296875 0.09375 "/></g></g></g><g fill="#84e4e9" fill-opacity="1"><g transform="translate(130.052699, 54.804749)"><g><path d="M 6.390625 0.09375 C 5.398438 0.09375 4.503906 -0.128906 3.703125 -0.578125 C 2.910156 -1.035156 2.285156 -1.660156 1.828125 -2.453125 C 1.378906 -3.253906 1.15625 -4.15625 1.15625 -5.15625 C 1.15625 -6.144531 1.378906 -7.039062 1.828125 -7.84375 C 2.285156 -8.644531 2.910156 -9.269531 3.703125 -9.71875 C 4.503906 -10.175781 5.398438 -10.40625 6.390625 -10.40625 C 7.390625 -10.40625 8.285156 -10.175781 9.078125 -9.71875 C 9.867188 -9.269531 10.492188 -8.644531 10.953125 -7.84375 C 11.410156 -7.039062 11.640625 -6.144531 11.640625 -5.15625 C 11.640625 -4.15625 11.410156 -3.253906 10.953125 -2.453125 C 10.503906 -1.660156 9.878906 -1.035156 9.078125 -0.578125 C 8.285156 -0.128906 7.390625 0.09375 6.390625 0.09375 Z M 6.390625 -1.21875 C 7.117188 -1.21875 7.769531 -1.390625 8.34375 -1.734375 C 8.925781 -2.078125 9.378906 -2.546875 9.703125 -3.140625 C 10.035156 -3.734375 10.203125 -4.40625 10.203125 -5.15625 C 10.203125 -5.90625 10.035156 -6.578125 9.703125 -7.171875 C 9.378906 -7.773438 8.925781 -8.242188 8.34375 -8.578125 C 7.769531 -8.921875 7.117188 -9.09375 6.390625 -9.09375 C 5.671875 -9.09375 5.019531 -8.921875 4.4375 -8.578125 C 3.851562 -8.242188 3.394531 -7.773438 3.0625 -7.171875 C 2.726562 -6.578125 2.5625 -5.90625 2.5625 -5.15625 C 2.5625 -4.40625 2.726562 -3.734375 3.0625 -3.140625 C 3.394531 -2.546875 3.851562 -2.078125 4.4375 -1.734375 C 5.019531 -1.390625 5.671875 -1.21875 6.390625 -1.21875 Z M 6.390625 -1.21875 "/></g></g></g><g fill="#84e4e9" fill-opacity="1"><g transform="translate(142.824894, 54.804749)"><g><path d="M 3.921875 0 C 3.148438 0 2.519531 -0.300781 2.03125 -0.90625 C 1.550781 -1.519531 1.3125 -2.304688 1.3125 -3.265625 L 1.3125 -14.015625 C 1.3125 -14.222656 1.378906 -14.394531 1.515625 -14.53125 C 1.660156 -14.664062 1.832031 -14.734375 2.03125 -14.734375 C 2.25 -14.734375 2.421875 -14.664062 2.546875 -14.53125 C 2.679688 -14.394531 2.75 -14.222656 2.75 -14.015625 L 2.75 -3.265625 C 2.75 -2.722656 2.859375 -2.28125 3.078125 -1.9375 C 3.296875 -1.601562 3.578125 -1.4375 3.921875 -1.4375 L 4.390625 -1.4375 C 4.578125 -1.4375 4.726562 -1.367188 4.84375 -1.234375 C 4.957031 -1.097656 5.015625 -0.925781 5.015625 -0.71875 C 5.015625 -0.5 4.9375 -0.320312 4.78125 -0.1875 C 4.625 -0.0625 4.421875 0 4.171875 0 Z M 3.921875 0 "/></g></g></g><g fill="#84e4e9" fill-opacity="1"><g transform="translate(148.145069, 54.804749)"><g><path d="M 10.328125 -10.3125 C 10.546875 -10.3125 10.722656 -10.242188 10.859375 -10.109375 C 11.003906 -9.984375 11.078125 -9.8125 11.078125 -9.59375 L 11.078125 -0.734375 C 11.078125 -0.523438 11.003906 -0.347656 10.859375 -0.203125 C 10.722656 -0.0664062 10.546875 0 10.328125 0 C 10.117188 0 9.945312 -0.0664062 9.8125 -0.203125 C 9.6875 -0.347656 9.625 -0.523438 9.625 -0.734375 L 9.625 -1.375 C 9.207031 -0.90625 8.703125 -0.539062 8.109375 -0.28125 C 7.515625 -0.0195312 6.875 0.109375 6.1875 0.109375 C 5.289062 0.109375 4.488281 -0.078125 3.78125 -0.453125 C 3.070312 -0.828125 2.515625 -1.375 2.109375 -2.09375 C 1.710938 -2.820312 1.515625 -3.691406 1.515625 -4.703125 L 1.515625 -9.59375 C 1.515625 -9.800781 1.582031 -9.972656 1.71875 -10.109375 C 1.851562 -10.242188 2.019531 -10.3125 2.21875 -10.3125 C 2.4375 -10.3125 2.613281 -10.242188 2.75 -10.109375 C 2.882812 -9.972656 2.953125 -9.800781 2.953125 -9.59375 L 2.953125 -4.703125 C 2.953125 -3.578125 3.265625 -2.722656 3.890625 -2.140625 C 4.515625 -1.554688 5.332031 -1.265625 6.34375 -1.265625 C 6.957031 -1.265625 7.507812 -1.382812 8 -1.625 C 8.5 -1.863281 8.894531 -2.191406 9.1875 -2.609375 C 9.476562 -3.035156 9.625 -3.503906 9.625 -4.015625 L 9.625 -9.59375 C 9.625 -9.8125 9.6875 -9.984375 9.8125 -10.109375 C 9.945312 -10.242188 10.117188 -10.3125 10.328125 -10.3125 Z M 10.328125 -10.3125 "/></g></g></g><g fill="#84e4e9" fill-opacity="1"><g transform="translate(160.917264, 54.804749)"><g><path d="M 6.25 -1.453125 C 6.445312 -1.453125 6.609375 -1.378906 6.734375 -1.234375 C 6.859375 -1.097656 6.921875 -0.925781 6.921875 -0.71875 C 6.921875 -0.519531 6.84375 -0.347656 6.6875 -0.203125 C 6.539062 -0.0664062 6.351562 0 6.125 0 L 5.734375 0 C 5.066406 0 4.46875 -0.160156 3.9375 -0.484375 C 3.414062 -0.804688 3.003906 -1.238281 2.703125 -1.78125 C 2.410156 -2.332031 2.265625 -2.953125 2.265625 -3.640625 L 2.265625 -8.671875 L 1.03125 -8.671875 C 0.832031 -8.671875 0.671875 -8.726562 0.546875 -8.84375 C 0.429688 -8.96875 0.375 -9.117188 0.375 -9.296875 C 0.375 -9.484375 0.429688 -9.632812 0.546875 -9.75 C 0.671875 -9.875 0.832031 -9.9375 1.03125 -9.9375 L 2.265625 -9.9375 L 2.265625 -12.859375 C 2.265625 -13.078125 2.328125 -13.253906 2.453125 -13.390625 C 2.585938 -13.523438 2.765625 -13.59375 2.984375 -13.59375 C 3.191406 -13.59375 3.363281 -13.523438 3.5 -13.390625 C 3.644531 -13.253906 3.71875 -13.078125 3.71875 -12.859375 L 3.71875 -9.9375 L 5.84375 -9.9375 C 6.039062 -9.9375 6.195312 -9.875 6.3125 -9.75 C 6.4375 -9.632812 6.5 -9.484375 6.5 -9.296875 C 6.5 -9.117188 6.4375 -8.96875 6.3125 -8.84375 C 6.195312 -8.726562 6.039062 -8.671875 5.84375 -8.671875 L 3.71875 -8.671875 L 3.71875 -3.640625 C 3.71875 -2.992188 3.90625 -2.46875 4.28125 -2.0625 C 4.65625 -1.65625 5.140625 -1.453125 5.734375 -1.453125 Z M 6.25 -1.453125 "/></g></g></g><g fill="#84e4e9" fill-opacity="1"><g transform="translate(168.50135, 54.804749)"><g><path d="M 2.734375 0 C 2.515625 0 2.335938 -0.0664062 2.203125 -0.203125 C 2.066406 -0.347656 2 -0.523438 2 -0.734375 L 2 -9.578125 C 2 -9.796875 2.066406 -9.972656 2.203125 -10.109375 C 2.335938 -10.242188 2.515625 -10.3125 2.734375 -10.3125 C 2.953125 -10.3125 3.125 -10.242188 3.25 -10.109375 C 3.382812 -9.972656 3.453125 -9.796875 3.453125 -9.578125 L 3.453125 -0.734375 C 3.453125 -0.523438 3.382812 -0.347656 3.25 -0.203125 C 3.125 -0.0664062 2.953125 0 2.734375 0 Z M 2.71875 -12.28125 C 2.425781 -12.28125 2.179688 -12.378906 1.984375 -12.578125 C 1.796875 -12.773438 1.703125 -13.019531 1.703125 -13.3125 C 1.703125 -13.613281 1.800781 -13.859375 2 -14.046875 C 2.207031 -14.234375 2.453125 -14.328125 2.734375 -14.328125 C 3.015625 -14.328125 3.253906 -14.234375 3.453125 -14.046875 C 3.660156 -13.859375 3.765625 -13.613281 3.765625 -13.3125 C 3.765625 -13.019531 3.660156 -12.773438 3.453125 -12.578125 C 3.253906 -12.378906 3.007812 -12.28125 2.71875 -12.28125 Z M 2.71875 -12.28125 "/></g></g></g><g fill="#84e4e9" fill-opacity="1"><g transform="translate(173.95359, 54.804749)"><g><path d="M 6.390625 0.09375 C 5.398438 0.09375 4.503906 -0.128906 3.703125 -0.578125 C 2.910156 -1.035156 2.285156 -1.660156 1.828125 -2.453125 C 1.378906 -3.253906 1.15625 -4.15625 1.15625 -5.15625 C 1.15625 -6.144531 1.378906 -7.039062 1.828125 -7.84375 C 2.285156 -8.644531 2.910156 -9.269531 3.703125 -9.71875 C 4.503906 -10.175781 5.398438 -10.40625 6.390625 -10.40625 C 7.390625 -10.40625 8.285156 -10.175781 9.078125 -9.71875 C 9.867188 -9.269531 10.492188 -8.644531 10.953125 -7.84375 C 11.410156 -7.039062 11.640625 -6.144531 11.640625 -5.15625 C 11.640625 -4.15625 11.410156 -3.253906 10.953125 -2.453125 C 10.503906 -1.660156 9.878906 -1.035156 9.078125 -0.578125 C 8.285156 -0.128906 7.390625 0.09375 6.390625 0.09375 Z M 6.390625 -1.21875 C 7.117188 -1.21875 7.769531 -1.390625 8.34375 -1.734375 C 8.925781 -2.078125 9.378906 -2.546875 9.703125 -3.140625 C 10.035156 -3.734375 10.203125 -4.40625 10.203125 -5.15625 C 10.203125 -5.90625 10.035156 -6.578125 9.703125 -7.171875 C 9.378906 -7.773438 8.925781 -8.242188 8.34375 -8.578125 C 7.769531 -8.921875 7.117188 -9.09375 6.390625 -9.09375 C 5.671875 -9.09375 5.019531 -8.921875 4.4375 -8.578125 C 3.851562 -8.242188 3.394531 -7.773438 3.0625 -7.171875 C 2.726562 -6.578125 2.5625 -5.90625 2.5625 -5.15625 C 2.5625 -4.40625 2.726562 -3.734375 3.0625 -3.140625 C 3.394531 -2.546875 3.851562 -2.078125 4.4375 -1.734375 C 5.019531 -1.390625 5.671875 -1.21875 6.390625 -1.21875 Z M 6.390625 -1.21875 "/></g></g></g><g fill="#84e4e9" fill-opacity="1"><g transform="translate(186.725786, 54.804749)"><g><path d="M 6.578125 -10.421875 C 7.472656 -10.421875 8.273438 -10.234375 8.984375 -9.859375 C 9.691406 -9.484375 10.25 -8.929688 10.65625 -8.203125 C 11.0625 -7.484375 11.265625 -6.625 11.265625 -5.625 L 11.265625 -0.71875 C 11.265625 -0.519531 11.191406 -0.347656 11.046875 -0.203125 C 10.910156 -0.0664062 10.742188 0 10.546875 0 C 10.328125 0 10.148438 -0.0664062 10.015625 -0.203125 C 9.878906 -0.347656 9.8125 -0.519531 9.8125 -0.71875 L 9.8125 -5.625 C 9.8125 -6.738281 9.5 -7.585938 8.875 -8.171875 C 8.25 -8.753906 7.4375 -9.046875 6.4375 -9.046875 C 5.8125 -9.046875 5.25 -8.925781 4.75 -8.6875 C 4.257812 -8.445312 3.867188 -8.117188 3.578125 -7.703125 C 3.296875 -7.285156 3.15625 -6.816406 3.15625 -6.296875 L 3.15625 -0.71875 C 3.15625 -0.5 3.085938 -0.320312 2.953125 -0.1875 C 2.816406 -0.0625 2.644531 0 2.4375 0 C 2.21875 0 2.039062 -0.0625 1.90625 -0.1875 C 1.769531 -0.320312 1.703125 -0.5 1.703125 -0.71875 L 1.703125 -9.578125 C 1.703125 -9.796875 1.769531 -9.972656 1.90625 -10.109375 C 2.039062 -10.242188 2.21875 -10.3125 2.4375 -10.3125 C 2.644531 -10.3125 2.816406 -10.242188 2.953125 -10.109375 C 3.085938 -9.972656 3.15625 -9.796875 3.15625 -9.578125 L 3.15625 -8.9375 C 3.5625 -9.40625 4.0625 -9.769531 4.65625 -10.03125 C 5.25 -10.289062 5.890625 -10.421875 6.578125 -10.421875 Z M 6.578125 -10.421875 "/></g></g></g><g fill="#84e4e9" fill-opacity="1"><g transform="translate(199.497981, 54.804749)"><g><path d="M 5.296875 0.09375 C 4.515625 0.09375 3.765625 -0.0351562 3.046875 -0.296875 C 2.335938 -0.566406 1.757812 -0.941406 1.3125 -1.421875 C 1.1875 -1.566406 1.125 -1.707031 1.125 -1.84375 C 1.125 -2.0625 1.226562 -2.25 1.4375 -2.40625 C 1.582031 -2.519531 1.738281 -2.578125 1.90625 -2.578125 C 2.113281 -2.578125 2.296875 -2.488281 2.453125 -2.3125 C 2.753906 -1.96875 3.148438 -1.695312 3.640625 -1.5 C 4.140625 -1.3125 4.691406 -1.21875 5.296875 -1.21875 C 6.179688 -1.21875 6.84375 -1.367188 7.28125 -1.671875 C 7.71875 -1.972656 7.941406 -2.367188 7.953125 -2.859375 C 7.953125 -3.316406 7.734375 -3.695312 7.296875 -4 C 6.859375 -4.300781 6.160156 -4.523438 5.203125 -4.671875 C 3.972656 -4.878906 3.050781 -5.226562 2.4375 -5.71875 C 1.832031 -6.21875 1.53125 -6.820312 1.53125 -7.53125 C 1.53125 -8.445312 1.882812 -9.15625 2.59375 -9.65625 C 3.300781 -10.15625 4.191406 -10.40625 5.265625 -10.40625 C 6.085938 -10.40625 6.804688 -10.265625 7.421875 -9.984375 C 8.046875 -9.703125 8.546875 -9.3125 8.921875 -8.8125 C 9.023438 -8.644531 9.078125 -8.5 9.078125 -8.375 C 9.078125 -8.15625 8.972656 -7.984375 8.765625 -7.859375 C 8.679688 -7.796875 8.5625 -7.765625 8.40625 -7.765625 C 8.144531 -7.765625 7.925781 -7.859375 7.75 -8.046875 C 7.132812 -8.753906 6.289062 -9.109375 5.21875 -9.109375 C 4.53125 -9.109375 3.976562 -8.96875 3.5625 -8.6875 C 3.144531 -8.40625 2.9375 -8.050781 2.9375 -7.625 C 2.9375 -7.164062 3.128906 -6.800781 3.515625 -6.53125 C 3.910156 -6.257812 4.601562 -6.046875 5.59375 -5.890625 C 6.945312 -5.660156 7.910156 -5.289062 8.484375 -4.78125 C 9.066406 -4.269531 9.359375 -3.640625 9.359375 -2.890625 C 9.359375 -2.304688 9.179688 -1.785156 8.828125 -1.328125 C 8.484375 -0.878906 8.003906 -0.53125 7.390625 -0.28125 C 6.773438 -0.03125 6.078125 0.09375 5.296875 0.09375 Z M 5.296875 0.09375 "/></g></g></g></svg>